<svg width="1024" height="1200" xmlns="http://www.w3.org/2000/svg" class="icon">
 <defs>
  <style type="text/css"/>
 </defs>
 <g>
  <title>background</title>
  <rect fill="none" id="canvas_background" height="1202" width="1026" y="-1" x="-1"/>
 </g>
 <g>
  <title>Layer 1</title>
  <path stroke="null" transform="rotate(-0.217423677444458 380.53921508788835,469.47326660157586) " id="svg_1" fill="#ffffff" d="m645.1885,1.558435c0,0 -621.007025,0 -636.24025,0l0,801.170796c0,66.303845 55.311321,134.65884 106.694576,134.65884l530.394979,0c53.081881,0 106.092418,-67.285575 106.092418,-133.856777l0,-668.65293c0,-65.769139 -53.43519,-133.319929 -106.941723,-133.319929zm-421.10831,813.803822l-47.773696,0l0,-460.184004c-20.714674,20.067608 -46.205864,38.114016 -76.437907,54.139225l0,-39.101086c68.450997,-52.118036 109.87949,-134.314493 124.211604,-246.634276l54.939313,0c-15.936448,74.206833 -34.262013,129.333138 -54.939313,165.425955l0,526.354185zm437.128842,-333.859135l-167.207912,0l0,255.658018l157.653178,0l0,39.101097l-363.080052,0l0,-39.101097l155.264915,0l0,-255.658018l-164.819658,0l0,-42.10829l164.819658,0l0,-213.548652l-143.321072,0l0,-45.11657l229.313722,0c39.786777,0 77.221819,-6.015462 112.268599,-18.046408l0,48.123763c-30.269416,10.056795 -66.883173,15.039215 -109.87949,15.039215l-38.218954,0l0,213.549718l167.20792,0l0,42.107224l-0.000855,0z"/>
 </g>
</svg>